<svg width="40" height="40" viewBox="0 0 40 40" fill="none" xmlns="http://www.w3.org/2000/svg">
<g id="monitor_heart_FILL0_wght400_GRAD0_opsz40 1">
<path id="Vector" d="M3.33337 15.8334V9.44441C3.33337 8.69441 3.60883 8.04396 4.15975 7.49304C4.71067 6.94212 5.36112 6.66666 6.11112 6.66666H33.889C34.639 6.66666 35.2894 6.94212 35.8403 7.49304C36.3913 8.04396 36.6667 8.69441 36.6667 9.44441V15.8334H33.889V9.44441H6.11112V15.8334H3.33337ZM6.11112 33.3333C5.36112 33.3333 4.71067 33.0579 4.15975 32.507C3.60883 31.956 3.33337 31.3056 3.33337 30.5556V24.1666H6.11112V30.5556H33.889V24.1666H36.6667V30.5556C36.6667 31.3056 36.3913 31.956 35.8403 32.507C35.2894 33.0579 34.639 33.3333 33.889 33.3333H6.11112ZM16.6614 28.0555C16.9149 28.0555 17.1584 27.993 17.3917 27.868C17.625 27.743 17.8 27.5555 17.9167 27.3055L23.3334 16.4722L25.4167 20.6389C25.5325 20.8889 25.7061 21.0764 25.9375 21.2014C26.169 21.3264 26.4121 21.3889 26.6667 21.3889H36.6667V18.6111H27.5417L24.5834 12.7222C24.4681 12.4676 24.2952 12.2882 24.0648 12.184C23.8343 12.0799 23.5922 12.0278 23.3387 12.0278C23.0852 12.0278 22.8417 12.0799 22.6084 12.184C22.375 12.2882 22.2 12.4676 22.0834 12.7222L16.6667 23.5278L14.5834 19.3611C14.4676 19.1111 14.294 18.9236 14.0625 18.7986C13.8311 18.6736 13.588 18.6111 13.3334 18.6111H3.33337V21.3889H12.4584L15.4167 27.3055C15.532 27.5555 15.7048 27.743 15.9353 27.868C16.1658 27.993 16.4078 28.0555 16.6614 28.0555Z" fill="white"/>
</g>
</svg>
